# xmcd CD database file
#
# Track frame offsets:
#	150
#	21002
#	42670
#	63497
#	85242
#
# Disc length: 1412 seconds
#
# Revision: 0
# Processed by: cddbd v1.5PL3 Copyright (c) Steve Scherf et al.
# Submitted via: CDex 1.51
#
DISCID=3c058205
DTITLE=Fancy Free Flamingo - READY GO!
DYEAR=2000
DGENRE=Pop
TTITLE0=READY GO!
TTITLE1=review 〜もしも神様がいるなら〜
TTITLE2=READY GO! <カラオケ>
TTITLE3=review 〜もしも神様がいるなら〜 <カラオケ>
TTITLE4=bonus track
EXTD=YEAR: 2000
EXTT0=
EXTT1=
EXTT2=
EXTT3=
EXTT4=
PLAYORDER=
